<?xml version="1.0"?>
<svg xmlns="http://www.w3.org/2000/svg" xmlns:xlink="http://www.w3.org/1999/xlink" xmlns:svgjs="http://svgjs.com/svgjs" version="1.1" width="512" height="512" x="0" y="0" viewBox="0 0 384 384" style="enable-background:new 0 0 512 512" xml:space="preserve" class=""><g><path xmlns="http://www.w3.org/2000/svg" d="m368 154.667969h-352c-8.832031 0-16-7.167969-16-16s7.167969-16 16-16h352c8.832031 0 16 7.167969 16 16s-7.167969 16-16 16zm0 0" fill="#ffffff" data-original="#000000" style="" class=""/><path xmlns="http://www.w3.org/2000/svg" d="m368 32h-352c-8.832031 0-16-7.167969-16-16s7.167969-16 16-16h352c8.832031 0 16 7.167969 16 16s-7.167969 16-16 16zm0 0" fill="#ffffff" data-original="#000000" style="" class=""/><path xmlns="http://www.w3.org/2000/svg" d="m368 277.332031h-352c-8.832031 0-16-7.167969-16-16s7.167969-16 16-16h352c8.832031 0 16 7.167969 16 16s-7.167969 16-16 16zm0 0" fill="#ffffff" data-original="#000000" style="" class=""/><style xmlns="http://www.w3.org/2000/svg" id="stylish-15" class="stylish" type="text/css">/* -=&lt; Darker Pirate Bay by Zigboom Designs - www.zigboom.com &gt;=- */


@namespace url(http://www.w3.org/1999/xhtml);</style><style xmlns="http://www.w3.org/2000/svg" id="stylish-21" class="stylish" type="text/css">/* ==UserStyle==
@name         Wikipedia Deep Dark Theme
@version      1.0.0
@description  Dark Wikipedia theme. Get a cleaner, easier-to-read wiki at night to focus on content while browsing a beautiful dark website.
@namespace    http://www.w3.org/1999/xhtml
@author       n0x
@homepageURL  https://github.com/n0x-styles/wikipedia-dark
@supportURL   https://github.com/n0x-styles/wikipedia-dark/issues
@updateURL    https://raw.githubusercontent.com/n0x-styles/wikipedia-dark/master/wikipedia-dark.user.css
@license      CC0
@preprocessor default
==/UserStyle== */

@namespace url(http://www.w3.org/1999/xhtml);</style><style xmlns="http://www.w3.org/2000/svg" id="stylish-23" class="stylish" type="text/css">/* ==UserStyle==
@name         Wikipedia Deep Dark Theme
@version      1.0.0
@description  Dark Wikipedia theme. Get a cleaner, easier-to-read wiki at night to focus on content while browsing a beautiful dark website.
@namespace    http://www.w3.org/1999/xhtml
@author       n0x
@homepageURL  https://github.com/n0x-styles/wikipedia-dark
@supportURL   https://github.com/n0x-styles/wikipedia-dark/issues
@updateURL    https://raw.githubusercontent.com/n0x-styles/wikipedia-dark/master/wikipedia-dark.user.css
@license      CC0
@preprocessor default
==/UserStyle== */

@namespace url(http://www.w3.org/1999/xhtml);</style></g></svg>
